<svg width="254" height="64" viewBox="0 0 254 64" fill="none" xmlns="http://www.w3.org/2000/svg">
<rect x="0.5" y="0.5" width="253" height="63" stroke="#ED5F55"/>
<path d="M89.6387 43V23.0117H92.9062V40.1973H101.369V43H89.6387ZM122.561 32.9785C122.561 36.2324 121.745 38.7617 120.113 40.5664C118.491 42.3711 116.189 43.2734 113.209 43.2734C110.192 43.2734 107.872 42.3802 106.25 40.5938C104.637 38.7982 103.83 36.2507 103.83 32.9512C103.83 29.6517 104.641 27.1178 106.264 25.3496C107.895 23.5814 110.219 22.6973 113.236 22.6973C116.208 22.6973 118.505 23.5951 120.127 25.3906C121.749 27.1862 122.561 29.7155 122.561 32.9785ZM107.303 32.9785C107.303 35.4395 107.799 37.3079 108.793 38.584C109.786 39.8509 111.258 40.4844 113.209 40.4844C115.15 40.4844 116.613 39.8555 117.598 38.5977C118.591 37.3398 119.088 35.4668 119.088 32.9785C119.088 30.5267 118.596 28.6673 117.611 27.4004C116.636 26.1335 115.178 25.5 113.236 25.5C111.277 25.5 109.796 26.1335 108.793 27.4004C107.799 28.6673 107.303 30.5267 107.303 32.9785ZM135.029 32.1582H142.385V42.1934C141.182 42.5853 140.024 42.8633 138.912 43.0273C137.809 43.1914 136.615 43.2734 135.33 43.2734C132.304 43.2734 129.971 42.3802 128.33 40.5938C126.689 38.7982 125.869 36.2689 125.869 33.0059C125.869 29.7884 126.794 27.2728 128.645 25.459C130.495 23.6361 133.042 22.7246 136.287 22.7246C138.374 22.7246 140.352 23.1257 142.221 23.9277L141.072 26.6484C139.45 25.901 137.827 25.5273 136.205 25.5273C134.072 25.5273 132.386 26.1973 131.146 27.5371C129.907 28.877 129.287 30.709 129.287 33.0332C129.287 35.4759 129.843 37.3353 130.955 38.6113C132.076 39.8783 133.685 40.5117 135.781 40.5117C136.839 40.5117 137.969 40.3796 139.172 40.1152V34.9609H135.029V32.1582ZM164.943 32.9785C164.943 36.2324 164.128 38.7617 162.496 40.5664C160.874 42.3711 158.572 43.2734 155.592 43.2734C152.575 43.2734 150.255 42.3802 148.633 40.5938C147.02 38.7982 146.213 36.2507 146.213 32.9512C146.213 29.6517 147.024 27.1178 148.646 25.3496C150.278 23.5814 152.602 22.6973 155.619 22.6973C158.59 22.6973 160.887 23.5951 162.51 25.3906C164.132 27.1862 164.943 29.7155 164.943 32.9785ZM149.686 32.9785C149.686 35.4395 150.182 37.3079 151.176 38.584C152.169 39.8509 153.641 40.4844 155.592 40.4844C157.533 40.4844 158.996 39.8555 159.98 38.5977C160.974 37.3398 161.471 35.4668 161.471 32.9785C161.471 30.5267 160.979 28.6673 159.994 27.4004C159.019 26.1335 157.561 25.5 155.619 25.5C153.66 25.5 152.178 26.1335 151.176 27.4004C150.182 28.6673 149.686 30.5267 149.686 32.9785Z" fill="#ED5F55"/>
</svg>
