<svg width="46" height="46" viewBox="0 0 46 46" fill="none" xmlns="http://www.w3.org/2000/svg">
<circle cx="23" cy="23" r="23" fill="#7B519D"/>
<path d="M29.5548 21.7511C29.579 18.9894 27.1635 16.4577 24.1704 16.1076C24.1109 16.1007 24.046 16.0902 23.9774 16.0792C23.8292 16.0553 23.6759 16.0307 23.5213 16.0307C22.9079 16.0307 22.7439 16.4503 22.7007 16.7006C22.6587 16.9439 22.6988 17.1483 22.8195 17.3082C23.0227 17.5772 23.3801 17.6249 23.6672 17.6632C23.7514 17.6745 23.8308 17.685 23.8973 17.6996C26.5865 18.2847 27.492 19.2047 27.9345 21.8012C27.9453 21.8647 27.9502 21.9428 27.9554 22.0257C27.9747 22.3361 28.0149 22.9819 28.7279 22.9819H28.7279C28.7873 22.9819 28.851 22.9769 28.9174 22.967C29.5813 22.8688 29.5605 22.2785 29.5505 21.9949C29.5477 21.915 29.545 21.8395 29.552 21.7892C29.5538 21.7766 29.5548 21.7639 29.5548 21.7511Z" fill="white"/>
<path d="M23.347 15.0944C23.4267 15.1 23.5021 15.1053 23.5648 15.1147C27.9808 15.776 30.0117 17.8134 30.5745 22.1473C30.584 22.221 30.5855 22.3108 30.5871 22.406C30.5927 22.7446 30.6043 23.449 31.3811 23.4636L31.4052 23.4638C31.6488 23.4638 31.8426 23.3923 31.9812 23.251C32.2231 23.0047 32.2062 22.6388 32.1926 22.3447C32.1893 22.2726 32.1861 22.2046 32.1869 22.1451C32.243 17.7127 28.303 13.6934 23.7554 13.5439C23.7365 13.5433 23.7185 13.5443 23.7003 13.5468C23.6914 13.548 23.6749 13.5496 23.6465 13.5496C23.6011 13.5496 23.5454 13.5458 23.4862 13.5419C23.4147 13.5372 23.3336 13.5317 23.2514 13.5317C22.5271 13.5317 22.3895 14.0329 22.3718 14.3318C22.3312 15.0223 23.0173 15.0709 23.347 15.0944Z" fill="white"/>
<path d="M30.3617 27.749C30.2678 27.6791 30.1708 27.6069 30.0799 27.5356C29.5977 27.1577 29.0848 26.8095 28.5887 26.4726C28.4858 26.4028 28.3828 26.3329 28.2802 26.2628C27.6448 25.8282 27.0735 25.617 26.5337 25.617C25.8068 25.617 25.1729 26.0081 24.6498 26.7794C24.4181 27.1214 24.1369 27.2876 23.7904 27.2876C23.5855 27.2876 23.3526 27.2307 23.0984 27.1183C21.0473 26.2126 19.5827 24.8239 18.7452 22.9908C18.3403 22.1048 18.4716 21.5257 19.1841 21.0543C19.5887 20.7869 20.3419 20.2891 20.2885 19.3357C20.2281 18.253 17.775 14.9955 16.7414 14.6255C16.3038 14.4688 15.8441 14.4673 15.3724 14.6218C14.1842 15.0108 13.3316 15.6939 12.9064 16.5971C12.4955 17.4699 12.5141 18.4947 12.96 19.5608C14.2493 22.6429 16.062 25.3302 18.3478 27.5477C20.5852 29.7185 23.3353 31.4967 26.5214 32.8326C26.8085 32.953 27.1098 33.0186 27.3297 33.0665C27.4047 33.0829 27.4694 33.0969 27.5166 33.1095C27.5425 33.1164 27.5693 33.1201 27.5961 33.1203L27.6212 33.1204C27.6213 33.1204 27.6212 33.1204 27.6214 33.1204C29.1199 33.1204 30.9192 31.787 31.4718 30.2667C31.956 28.9356 31.072 28.2776 30.3617 27.749Z" fill="white"/>
<path d="M24.0112 18.6151C23.7546 18.6215 23.2207 18.6343 23.0333 19.1639C22.9457 19.4114 22.9562 19.6262 23.0646 19.8025C23.2236 20.0612 23.5284 20.1405 23.8055 20.184C24.8107 20.341 25.327 20.8823 25.4303 21.8873C25.4782 22.3559 25.8023 22.6831 26.2183 22.6831H26.2184C26.2491 22.6831 26.2805 22.6813 26.3118 22.6776C26.8122 22.6197 27.0548 22.2617 27.0329 21.6137C27.0409 20.9374 26.6774 20.1696 26.0593 19.558C25.439 18.9446 24.6913 18.5991 24.0112 18.6151Z" fill="white"/>
</svg>
